# xmcd
#
# Track frame offsets:
#	183
#	11963
#	25268
#	38168
#	51908
#	66275
#	79098
#	88958
#	103718
#	116053
#	128473
#	142730
#	157395
#	171145
#	183350
#	195235
#	207633
#	221188
#
# Disc length: 3111
#
# Revision: 3
# Processed by: cddbd v1.5.1PL0 Copyright (c) Steve Scherf et al.
# Submitted via: DiscPlay 4.0.4
# Normalized: r1:TDELIM( - ),TSWAP
#
DISCID=080c2512
DTITLE=Various Artist - Super Bad Blues
DYEAR=1900
DGENRE=
TTITLE0=Sonny Boy Williamson - Don't Start Me Talkin'
TTITLE1=Little Walter - Key To The Highway
TTITLE2=Muddy Waters - Hoochie Coochie Man
TTITLE3=Howlin' Wolf - Smokestack Lightning
TTITLE4=Otis Rush - So Many Roads, So Many Trains
TTITLE5=Jimmy Witherspoon - When The Lights Go Out
TTITLE6=Chuck Berry - Worried Life Blues
TTITLE7=Eddie Boyd - Third Degree
TTITLE8=Otis Spann - I'm Leaving You
TTITLE9=Elmore James - The Sun Is Shining
TTITLE10=Lowell Fulson - Reconsider Baby
TTITLE11=John Lee Hooker - Sugar Mama
TTITLE12=Albert King - Howlin' For My Darlin
TTITLE13=Jimmy Rogers - Chicago Bound
TTITLE14=Buddy Guy - Ten Years Ago
TTITLE15=Bo Diddley - I'm A Man
TTITLE16=John Brim - You Got Me
TTITLE17=Washboard Sam - Diggin' My Potatoes
EXTD=
EXTT0=
EXTT1=
EXTT2=
EXTT3=
EXTT4=
EXTT5=
EXTT6=
EXTT7=
EXTT8=
EXTT9=
EXTT10=
EXTT11=
EXTT12=
EXTT13=
EXTT14=
EXTT15=
EXTT16=
EXTT17=
PLAYORDER=
